<?xml version="1.0" encoding="UTF-8" standalone="no"?><!DOCTYPE svg PUBLIC "-//W3C//DTD SVG 1.1//EN"
        "http://www.w3.org/Graphics/SVG/1.1/DTD/svg11.dtd">
<svg width="100%" height="100%" viewBox="0 0 1600 1200" version="1.1" xmlns="http://www.w3.org/2000/svg"
     xml:space="preserve"
     style="fill-rule:evenodd;clip-rule:evenodd;stroke-linecap:round;stroke-linejoin:round;stroke-miterlimit:1.5;">
  <path d="M639.734,88.659l-263.781,106.01l-153.256,217.973l-12.003,205.586l109.66,225.463c0,0 293.454,130.112 304.593,141.827c11.139,11.715 285.291,-41.194 288.652,-22.47c3.36,18.725 280.97,55.502 280.97,55.502l235.934,-9.506l113.502,-241.115l-100.539,-286.15l-118.207,-306.795l-241.984,-69.713l-443.541,-16.612Z"
        style="fill:none;stroke:#000;stroke-width:1px;"/>
  <path d="M660.764,277.825l419.727,5.761l183.408,114.748c0,0 100.826,280.293 91.992,297.097c-8.834,16.804 -176.686,143.171 -176.686,143.171l-256.484,-25.638l-281.45,1.824l-213.272,-94.871l-31.208,-249.757l263.973,-192.335Z"
        style="fill:none;stroke:#000;stroke-width:1px;"/>
  <path d="M642.249,90.274l18.515,187.551" style="fill:none;stroke:#000;stroke-width:1px;stroke-dasharray:1,1;"/>
</svg>