<svg xmlns="http://www.w3.org/2000/svg" xmlns:se="http://svg-edit.googlecode.com"
     xmlns:xlink="http://www.w3.org/1999/xlink" xmlns:dc="http://purl.org/dc/elements/1.1/"
     xmlns:cc="http://creativecommons.org/ns#" xmlns:rdf="http://www.w3.org/1999/02/22-rdf-syntax-ns#"
     xmlns:inkscape="http://www.inkscape.org/namespaces/inkscape" width="777" height="480">
  <title>my vector image</title>                                    <!-- Created with Vector Paint - http://www.vectorpaint.yaks.com/ https://chrome.google.com/webstore/detail/hnbpdiengicdefcjecjbnjnoifekhgdo -->
  <rect id="backgroundrect" width="100%" height="100%" x="0" y="0" fill="#FFFFFF" stroke="none"/>
  <g class="currentLayer" style="">
    <title>Layer 1</title>
    <path fill="#4a90d6" fill-opacity="1" stroke="#222222" stroke-opacity="1" stroke-width="2" stroke-dasharray="none"
          stroke-linejoin="round" stroke-linecap="butt" stroke-dashoffset="" fill-rule="nonzero" opacity="1"
          marker-start="" marker-mid="" marker-end="" id="svg_1"
          d="M 18.461366233291216 218.51135719099562 L 51.13636363636363 50.56818181818182 L 244.3181818181818 17.045454545454547 L 514.7727272727273 15.340909090909092 L 679.5454545454545 23.295454545454547 L 747.1590909090909 125 L 759.0909090909091 246.5909090909091 L 756.8181818181819 355.1136363636364 L 707.3863636363636 453.40909090909093 L 482.95454545454544 467.04545454545456 L 178.4090909090909 457.95454545454544 L 32.95454545454545 369.3181818181818 L 18.461366233291216 218.51135719099562 z"
          style="color: rgb(0, 0, 0);"/>
    <path fill="#0bd50b" fill-opacity="1" stroke="#222222" stroke-opacity="1" stroke-width="2" stroke-dasharray="none"
          stroke-linejoin="round" stroke-linecap="butt" stroke-dashoffset="" fill-rule="nonzero" opacity="1"
          marker-start="" marker-mid="" marker-end="" id="svg_3"
          d="M 123.57500316649677 233.28408454377046 C 123.57500316649677 233.28408454377046 135.50682141296875 154.3068113885512 136.0750032342293 154.3068113885512 C 136.64318505548988 154.3068113885512 196.30227628784974 117.37499300661408 196.30227628784974 117.37499300661408 C 196.30227628784974 117.37499300661408 282.6659131194565 102.03408383257867 282.6659131194565 102.03408383257867 C 282.6659131194565 102.03408383257867 394.59773190778884 96.92044744123353 394.59773190778884 96.92044744123353 C 394.59773190778884 96.92044744123353 463.34773228031787 101.46590201131811 463.34773228031787 101.46590201131811 C 463.34773228031787 101.46590201131811 481.5295505606561 124.19317486174093 481.5295505606561 124.19317486174093 C 481.5295505606561 124.19317486174093 505.9613688748606 160.5568114224174 505.9613688748606 160.5568114224174 C 505.9613688748606 160.5568114224174 515.05227801503 211.1249935146082 514.4840961937693 211.69317533586877 C 513.9159143725087 212.26135715712934 492.8931869858677 242.94317550520012 492.32500516460703 244.07953914772128 C 491.75682334334635 245.21590279024244 476.41591416931107 275.32953931705265 476.41591416931107 275.32953931705265 C 476.41591416931107 275.32953931705265 461.0750049952756 328.73863051554633 461.0750049952756 328.73863051554633 C 461.0750049952756 328.73863051554633 411.0750047243455 365.67044889748337 411.0750047243455 365.67044889748337 C 411.0750047243455 365.67044889748337 306.52954961240044 381.01135807151877 306.52954961240044 381.01135807151877 C 306.52954961240044 381.01135807151877 211.64318546188517 369.07953982504677 211.64318546188517 369.07953982504677 C 211.64318546188517 369.07953982504677 128.6886395578419 307.71590312890515 128.6886395578419 307.71590312890515 C 128.6886395578419 307.71590312890515 123.57500316649677 233.28408454377046 123.57500316649677 233.28408454377046 z"
          style="color: rgb(0, 0, 0);"/>
    <path fill="#0bd50b" fill-opacity="1" stroke="#222222" stroke-opacity="1" stroke-width="2" stroke-dasharray="none"
          stroke-linejoin="round" stroke-linecap="butt" stroke-dashoffset="" fill-rule="nonzero" opacity="1"
          marker-start="" marker-mid="" marker-end="" id="svg_5"
          d="M 622.4386422332777 145.215902248382 C 622.4386422332777 145.215902248382 590.0522784214252 160.5568114224174 590.0522784214252 160.5568114224174 C 590.0522784214252 160.5568114224174 594.0295511702493 187.82953884292482 594.0295511702493 187.82953884292482 C 594.0295511702493 187.82953884292482 623.5750058757989 207.1477207657842 623.5750058757989 207.1477207657842 C 623.5750058757989 207.1477207657842 666.7568242916021 198.62499344687564 666.4772727272727 198.29545454545453 C 666.7568242916021 198.62499344687564 676.4159152530319 154.87499320981178 676.4159152530319 154.87499320981178 C 676.4159152530319 154.87499320981178 649.711369653785 134.98862946569176 649.711369653785 134.98862946569176 C 649.711369653785 134.98862946569176 622.4386422332777 145.215902248382 622.4386422332777 145.215902248382 z"
          style="color: rgb(0, 0, 0);"/>
    <path fill="#0bd50b" fill-opacity="1" stroke="#222222" stroke-opacity="1" stroke-width="2" stroke-dasharray="none"
          stroke-linejoin="round" stroke-linecap="butt" stroke-dashoffset="" fill-rule="nonzero" opacity="1"
          marker-start="" marker-mid="" marker-end="" id="svg_7"
          d="M 542.8931872567978 290.1022666698275 C 542.8931872567978 290.1022666698275 574.1431874261292 276.4659029595738 574.1431874261292 276.4659029595738 C 574.1431874261292 276.4659029595738 595.1659148127703 289.5340848485669 595.1659148127703 289.5340848485669 C 595.1659148127703 289.5340848485669 598.5750057403336 319.07953955411654 598.5750057403336 319.07953955411654 C 598.5750057403336 319.07953955411654 590.0522784214252 353.73863065101136 590.0522784214252 353.73863065101136 C 590.0522784214252 353.73863065101136 553.1204600394881 359.98863068487765 553.1204600394881 359.98863068487765 C 553.1204600394881 359.98863068487765 516.7568234788116 334.420448728152 517.0454545454545 334.09090909090907 C 517.3250053000721 334.420448728152 522.4386416914173 302.0340849162995 522.1590909090909 301.70454545454544 C 522.4386416914173 302.0340849162995 542.8931872567978 290.1022666698275 542.8931872567978 290.1022666698275 z"
          style="color: rgb(0, 0, 0);"/>
    <path fill="#0bd50b" fill-opacity="1" stroke="#222222" stroke-opacity="1" stroke-width="2" stroke-dasharray="none"
          stroke-linejoin="round" stroke-linecap="butt" stroke-dashoffset="" fill-rule="nonzero" opacity="1"
          marker-start="" marker-mid="" marker-end="" id="svg_9"
          d="M 659.9386424364753 331.01135780058854 C 659.9386424364753 331.01135780058854 638.3477332285737 362.82953979118054 638.3477332285737 362.82953979118054 C 638.3477332285737 362.82953979118054 629.2568240884045 397.48863088807536 629.2568240884045 397.48863088807536 C 629.2568240884045 397.48863088807536 651.9840969388275 423.6249946660616 651.9840969388275 423.6249946660616 C 651.9840969388275 423.6249946660616 687.2113698569829 405.4431763857233 686.6431880357222 405.4431763857233 C 686.0750062144616 405.4431763857233 692.3250062483279 371.3522671100891 692.3250062483279 371.3522671100891 C 692.3250062483279 371.3522671100891 698.0068244609336 329.87499415806735 698.0068244609336 329.87499415806735 C 698.0068244609336 329.87499415806735 678.1204607168135 298.6249939887361 678.1204607168135 298.6249939887361 C 678.1204607168135 298.6249939887361 677.552278895553 297.7727212568452 677.552278895553 297.7727212568452 C 677.552278895553 297.7727212568452 677.552278895553 297.7727212568452 659.9386424364753 331.01135780058854 z"
          style="color: rgb(0, 0, 0);" class=""/>
    <path fill="#0bd50b" fill-opacity="1" stroke="#222222" stroke-opacity="1" stroke-width="2" stroke-dasharray="none"
          stroke-linejoin="round" stroke-linecap="butt" stroke-dashoffset="" fill-rule="nonzero" opacity="1"
          marker-start="" marker-mid="" marker-end=""
          d="M7.381820718710088,247.77272098591502L143.17727599998642,244.93181187961213" id="svg_2"/>
  </g>
</svg>